<svg xmlns="http://www.w3.org/2000/svg" width="1280" height="470" viewBox="0 0 1280 470" role="img" aria-label="Forge: an opinionated idea-to-PR workflow for Claude Code">
  <defs>
    <linearGradient id="ground" x1="0" y1="0" x2="1" y2="1">
      <stop offset="0%" stop-color="#141A19"/>
      <stop offset="100%" stop-color="#0D1211"/>
    </linearGradient>
    <linearGradient id="spark" x1="0" y1="0" x2="1" y2="0">
      <stop offset="0%" stop-color="#E0A45C"/>
      <stop offset="46%" stop-color="#8FA9E0"/>
      <stop offset="100%" stop-color="#5BC0AC"/>
    </linearGradient>
    <style>
      .mono { font-family: "SF Mono", ui-monospace, Menlo, monospace; }
      .sans { font-family: "Avenir Next", "Segoe UI", system-ui, sans-serif; }
    </style>
  </defs>

  <rect width="1280" height="470" fill="url(#ground)"/>
  <rect x="0" y="0" width="1280" height="3" fill="url(#spark)"/>

  <!-- eyebrow -->
  <text class="mono" x="64" y="88" font-size="13" letter-spacing="3.4" fill="#55645F">CLAUDE CODE PLUGIN</text>
  <text class="mono" x="286" y="88" font-size="13" letter-spacing="3.4" fill="#3E4B47">·</text>
  <text class="mono" x="306" y="88" font-size="13" letter-spacing="3.4" fill="#55645F">AGENTS THAT ARGUE</text>

  <!-- wordmark -->
  <text class="mono" x="64" y="176" font-size="92" font-weight="600" fill="#E3EBE8" letter-spacing="-1">
    <tspan fill="#E0A45C">/</tspan>forge
  </text>

  <!-- subtitle -->
  <text class="sans" x="66" y="220" font-size="23" fill="#93A29D">An opinionated idea-to-PR workflow, with a human gate at each seam.</text>

  <!-- adversarial pairs: the thesis, right-aligned -->
  <g text-anchor="end">
    <text class="mono" x="1216" y="96" font-size="11" letter-spacing="2.6" fill="#3E4B47">NO AGENT GRADES ITS OWN WORK</text>
    <text class="mono" x="1216" y="140" font-size="15" fill="#6E8681">planner <tspan fill="#E07A8E" font-weight="600">vs</tspan> critic</text>
    <text class="mono" x="1216" y="168" font-size="15" fill="#6E8681">generator <tspan fill="#E07A8E" font-weight="600">vs</tspan> evaluator</text>
    <text class="mono" x="1216" y="196" font-size="15" fill="#6E8681">evaluator <tspan fill="#E07A8E" font-weight="600">vs</tspan> fixer</text>
    <text class="sans" x="1216" y="224" font-size="12.5" fill="#3E4B47">separate contexts · artifacts only</text>
  </g>

  <!-- the seam: PM hands off to DEV through a human -->
  <line x1="724" y1="252" x2="724" y2="446" stroke="#B0680F" stroke-opacity="0.45" stroke-width="1.5" stroke-dasharray="4 6"/>
  <text class="mono" x="724" y="243" font-size="10" letter-spacing="1.6" fill="#B0680F" text-anchor="middle">HUMAN GATE</text>

  <!-- PM altitude -->
  <g>
    <rect x="48" y="270" width="664" height="170" rx="14" fill="#121817" stroke="#232C2A"/>
    <text class="mono" x="68" y="298" font-size="11" letter-spacing="2.4" fill="#93A29D">PM ALTITUDE · WHAT AND WHY</text>
    <text class="sans" x="68" y="318" font-size="12.5" fill="#55645F">no files · no schemas · no architecture</text>

    <rect x="64" y="336" width="300" height="76" rx="10" fill="#1A211F" stroke="#2C3733"/>
    <rect x="64" y="344" width="4" height="60" rx="2" fill="#E0A45C"/>
    <text class="mono" x="88" y="368" font-size="17" font-weight="600" fill="#E0A45C">/forge:interview</text>
    <text class="sans" x="88" y="391" font-size="13.5" fill="#93A29D">vague idea → spec</text>

    <rect x="404" y="336" width="300" height="76" rx="10" fill="#1A211F" stroke="#2C3733"/>
    <rect x="404" y="344" width="4" height="60" rx="2" fill="#8FA9E0"/>
    <text class="mono" x="428" y="368" font-size="17" font-weight="600" fill="#8FA9E0">/forge:planning</text>
    <text class="sans" x="428" y="391" font-size="13.5" fill="#93A29D">spec → GitHub issues</text>
  </g>

  <!-- DEV altitude -->
  <g>
    <rect x="736" y="270" width="496" height="170" rx="14" fill="#121817" stroke="#232C2A"/>
    <text class="mono" x="756" y="298" font-size="11" letter-spacing="2.4" fill="#93A29D">DEV ALTITUDE · HOW</text>
    <text class="sans" x="756" y="318" font-size="12.5" fill="#55645F">contract negotiated against live code</text>

    <rect x="752" y="336" width="292" height="76" rx="10" fill="#1A211F" stroke="#2C3733"/>
    <rect x="752" y="344" width="4" height="60" rx="2" fill="#5BC0AC"/>
    <text class="mono" x="776" y="368" font-size="17" font-weight="600" fill="#5BC0AC">/forge:building</text>
    <text class="sans" x="776" y="391" font-size="13.5" fill="#93A29D">issues → pull request</text>

    <rect x="1084" y="336" width="132" height="76" rx="10" fill="#16302B" stroke="#2C4C45"/>
    <text class="mono" x="1150" y="374" font-size="17" font-weight="600" fill="#5BC0AC" text-anchor="middle">PR</text>
    <text class="sans" x="1150" y="394" font-size="12" fill="#6E8681" text-anchor="middle">contract-tested</text>
  </g>

  <!-- flow across the seam -->
  <g stroke="#3E4B47" stroke-width="1.5">
    <path d="M704 374 h10"/><path d="M734 374 h10"/>
  </g>

  <!-- in-panel human gates -->
  <g fill="#B0680F">
    <circle cx="384" cy="374" r="3"/>
    <circle cx="1064" cy="374" r="3"/>
  </g>
  <g stroke="#3E4B47" stroke-width="1.5">
    <path d="M368 374 h8"/><path d="M392 374 h8"/>
    <path d="M1048 374 h8"/><path d="M1072 374 h8"/>
  </g>
  <g class="mono" font-size="10" letter-spacing="1.2" fill="#B0680F" text-anchor="middle">
    <text x="384" y="431">HUMAN</text>
    <text x="1064" y="431">HUMAN</text>
  </g>
</svg>
